<svg xmlns="http://www.w3.org/2000/svg" width="154.001" height="70" viewBox="0 0 154.001 70"><g transform="translate(-61 -10)"><g transform="translate(68.646 37.804)"><path d="M192.762,312.409l-4.818,25.279c-.314,1.495.5,2.357,2.12,2.357h3.115a2.807,2.807,0,0,0,2.992-2.357l5.361-28.11v-.018c-2.652,1.016-5.339,1.938-8.069,2.7A6.7,6.7,0,0,1,192.762,312.409Z" transform="translate(-187.877 -298.136)" fill="#fff"/><path d="M221.314,304.136h-3.865a2.817,2.817,0,0,0-2.93,2.069l-6.361,18.74L203.8,340.292h-.623l1.5-15.346.75-16.129c-1.022.6-2.039,1.2-3.09,1.757-1.9,1.01-3.847,1.93-5.813,2.8l-.824,30.134c-.062,1.667.81,2.242,2.244,2.242h9.351a2.852,2.852,0,0,0,2.992-2.242l12.967-36.445C223.87,305.343,223.185,304.136,221.314,304.136Z" transform="translate(-178.296 -303.847)" fill="#fff"/><path d="M225.435,303.995c-8.042,0-12.9,2.876-14.092,9.142-1,5.346-.935,8.22,2.868,11.727l6.236,5.691c2.182,1.954,2.369,3.507,1.808,6.5a3.454,3.454,0,0,1-3.68,2.7c-2.055,0-2.866-1.15-2.554-2.7l.748-4.081c.312-1.495-.5-2.357-2.12-2.357h-4.115a2.812,2.812,0,0,0-2.995,2.357l-.748,4.081c-1.245,6.266,2.558,9.14,10.6,9.14s12.842-2.874,14.087-9.14c1-5.346.937-8.22-2.866-11.727l-6.236-5.691c-2.18-1.954-2.367-3.507-1.806-6.5a3.383,3.383,0,0,1,3.616-2.7c2.057,0,2.928,1.15,2.618,2.7l-.813,4.079c-.247,1.495.5,2.359,2.122,2.359h4.115a2.77,2.77,0,0,0,2.992-2.359l.81-4.079C237.218,306.871,233.477,303.995,225.435,303.995Z" transform="translate(-164.961 -303.995)" fill="#fff"/></g><g transform="translate(61 13.879)" opacity="0.7"><path d="M202.787,317.62a70.9,70.9,0,0,1-14.141,5.67,1.967,1.967,0,0,1-2.454-1.306,57.881,57.881,0,0,1,0-28.26,1.967,1.967,0,0,1,2.449-1.308,70.377,70.377,0,0,1,14.143,5.664,67.049,67.049,0,0,1,12.388,8.471,1.7,1.7,0,0,1,0,2.607A67.48,67.48,0,0,1,202.787,317.62Z" transform="translate(-184.443 -292.341)" fill="#fff"/></g><g transform="translate(67.907 10)" opacity="0.697"><path d="M210.478,322.048a88.5,88.5,0,0,1-17.678,7.091,2.462,2.462,0,0,1-3.066-1.632,72.331,72.331,0,0,1,0-35.326,2.459,2.459,0,0,1,3.061-1.634,87.87,87.87,0,0,1,17.681,7.081,83.873,83.873,0,0,1,15.485,10.587,2.128,2.128,0,0,1,0,3.258A84.285,84.285,0,0,1,210.478,322.048Z" transform="translate(-187.545 -290.452)" fill="#fff"/></g><g transform="translate(151.067 28.923)"><path d="M226.942,308.863h-1.763v-8.982h1.763Z" transform="translate(-224.547 -299.446)" fill="#fff"/><path d="M228.514,307.756h-1.721V301.02h1.645v1.144h.087a2.213,2.213,0,0,1,2.178-1.232,2.328,2.328,0,0,1,2.5,2.535v4.289h-1.723v-4.044a1.315,1.315,0,0,0-1.42-1.437,1.438,1.438,0,0,0-1.547,1.534Z" transform="translate(-222.567 -298.339)" fill="#fff"/><path d="M234.4,303.029h-1.441v3.482c0,.643.347.782.779.782a2.254,2.254,0,0,0,.505-.062l.289,1.242a3.762,3.762,0,0,1-1.013.158c-1.294.033-2.293-.587-2.282-1.856v-3.747H230.2V301.8h1.038v-1.616h1.721V301.8H234.4Z" transform="translate(-218.384 -299.122)" fill="#fff"/><path d="M232.557,304.428a3.284,3.284,0,0,1,3.455-3.5,3.122,3.122,0,0,1,3.34,3.4v.487h-5.09a1.728,1.728,0,0,0,1.866,1.829,1.541,1.541,0,0,0,1.545-.868l1.608.166c-.305,1.17-1.474,1.938-3.177,1.938A3.254,3.254,0,0,1,232.557,304.428Zm5.145-.675a1.567,1.567,0,0,0-1.665-1.585,1.7,1.7,0,0,0-1.77,1.585Z" transform="translate(-215.498 -298.339)" fill="#fff"/><path d="M237.975,308.863h-1.721v-8.982h1.721Z" transform="translate(-210.963 -299.446)" fill="#fff"/><path d="M239.54,308.863h-1.723v-8.982h1.723Z" transform="translate(-209.046 -299.446)" fill="#fff"/><path d="M239.321,300.533a1.008,1.008,0,1,1,1,.86A.939.939,0,0,1,239.321,300.533Zm.136,1.817h1.721v6.736h-1.721Z" transform="translate(-207.201 -299.669)" fill="#fff"/><path d="M241.063,308.721l1.55-.347a1.782,1.782,0,0,0,1.706.821c.977,0,1.69-.409,1.69-1.373v-1.277h-.085a2.2,2.2,0,0,1-2.1,1.115c-1.683,0-3.01-1.1-3.01-3.3,0-2.215,1.327-3.433,3.015-3.433a2.187,2.187,0,0,1,2.1,1.2h.1V301.02h1.7v6.845c0,1.7-1.456,2.531-3.431,2.531C242.427,310.4,241.376,309.637,241.063,308.721Zm4.956-4.363c0-1.279-.608-2.125-1.717-2.125-1.147,0-1.734.9-1.734,2.125s.6,2.055,1.734,2.055C245.4,306.413,246.019,305.642,246.019,304.358Z" transform="translate(-205.374 -298.339)" fill="#fff"/><path d="M244.557,304.428a3.284,3.284,0,0,1,3.456-3.5,3.122,3.122,0,0,1,3.34,3.4v.487h-5.09a1.728,1.728,0,0,0,1.866,1.829,1.541,1.541,0,0,0,1.545-.868l1.608.166c-.305,1.17-1.474,1.938-3.177,1.938A3.254,3.254,0,0,1,244.557,304.428Zm5.145-.675a1.567,1.567,0,0,0-1.665-1.585,1.7,1.7,0,0,0-1.77,1.585Z" transform="translate(-200.779 -298.339)" fill="#fff"/><path d="M249.975,307.756h-1.721V301.02H249.9v1.144h.085a2.216,2.216,0,0,1,2.18-1.232,2.327,2.327,0,0,1,2.5,2.535v4.289h-1.721v-4.044a1.315,1.315,0,0,0-1.423-1.437,1.437,1.437,0,0,0-1.545,1.534Z" transform="translate(-196.245 -298.339)" fill="#fff"/><path d="M255.863,303.029h-1.441v3.482c0,.643.347.782.779.782a2.231,2.231,0,0,0,.5-.062l.292,1.242a3.762,3.762,0,0,1-1.013.158c-1.294.033-2.293-.587-2.282-1.856v-3.747h-1.038V301.8H252.7v-1.616h1.721V301.8h1.441Z" transform="translate(-192.063 -299.122)" fill="#fff"/><path d="M229.364,313.949h.1L232,306.881h1.941l-3.436,8.982h-2.178l-3.429-8.982h1.935Z" transform="translate(-224.895 -292.075)" fill="#fff"/><path d="M229.427,307.533a1.006,1.006,0,1,1,1,.86A.938.938,0,0,1,229.427,307.533Zm.131,1.817h1.723v6.736h-1.723Z" transform="translate(-219.337 -292.298)" fill="#fff"/><path d="M230.916,312.5c0-2.246,1.327-3.463,3.015-3.463a2.17,2.17,0,0,1,2.088,1.2h.071v-3.361h1.728v8.982h-1.694V314.8h-.1a2.215,2.215,0,0,1-2.091,1.178C232.205,315.98,230.916,314.721,230.916,312.5Zm5.208-.008c0-1.308-.61-2.154-1.719-2.154-1.144,0-1.734.9-1.734,2.154s.6,2.184,1.734,2.184C235.507,314.678,236.124,313.8,236.124,312.494Z" transform="translate(-217.51 -292.075)" fill="#fff"/><path d="M234.691,311.428a3.286,3.286,0,0,1,3.458-3.5,3.122,3.122,0,0,1,3.34,3.4v.487H236.4a1.728,1.728,0,0,0,1.866,1.829,1.541,1.541,0,0,0,1.545-.868l1.608.166c-.305,1.17-1.474,1.938-3.177,1.938A3.256,3.256,0,0,1,234.691,311.428Zm5.148-.675a1.567,1.567,0,0,0-1.665-1.585,1.7,1.7,0,0,0-1.77,1.585Z" transform="translate(-212.88 -290.968)" fill="#fff"/><path d="M238.247,311.414a3.5,3.5,0,1,1,3.5,3.474A3.278,3.278,0,0,1,238.247,311.414Zm5.255,0c0-1.234-.577-2.219-1.743-2.219-1.185,0-1.766.985-1.766,2.219s.581,2.2,1.766,2.2C242.925,313.615,243.5,312.642,243.5,311.41Z" transform="translate(-208.519 -290.968)" fill="#fff"/><path d="M228.83,315.2c-1.1,0-1.759.495-1.763,1.17-.009.751.857,1.061,1.657,1.238l.913.211c1.463.318,2.857,1.029,2.863,2.585-.007,1.585-1.36,2.659-3.7,2.659-2.269,0-3.709-1-3.783-2.788h1.737c.071.942.928,1.4,2.031,1.4,1.151,0,1.942-.513,1.946-1.279,0-.7-.7-1-1.75-1.246l-1.109-.263c-1.6-.38-2.6-1.123-2.6-2.412,0-1.587,1.532-2.648,3.576-2.648,2.075,0,3.478,1.076,3.511,2.593h-1.7C230.577,315.65,229.883,315.2,228.83,315.2Z" transform="translate(-224.742 -284.767)" fill="#fff"/><path d="M228.9,318.414a3.5,3.5,0,1,1,3.5,3.474A3.279,3.279,0,0,1,228.9,318.414Zm5.257,0c0-1.234-.581-2.219-1.746-2.219-1.187,0-1.763.985-1.763,2.219s.577,2.205,1.763,2.205C233.574,320.615,234.155,319.642,234.155,318.41Z" transform="translate(-219.985 -283.597)" fill="#fff"/><path d="M234.409,322.863h-1.723v-8.982h1.723Z" transform="translate(-215.339 -284.704)" fill="#fff"/><path d="M238.907,314.975h1.721v6.736h-1.67v-1.2h-.076a2.267,2.267,0,0,1-2.2,1.285,2.313,2.313,0,0,1-2.436-2.538v-4.287h1.721v4.042a1.3,1.3,0,0,0,1.38,1.394,1.491,1.491,0,0,0,1.554-1.534Z" transform="translate(-213.42 -283.552)" fill="#fff"/><path d="M241.853,317.029h-1.441v3.482c0,.643.347.782.779.782a2.292,2.292,0,0,0,.505-.062l.289,1.242a3.746,3.746,0,0,1-1.013.158c-1.3.033-2.293-.587-2.284-1.856v-3.747h-1.038V315.8h1.038v-1.616h1.723V315.8h1.441Z" transform="translate(-209.249 -284.38)" fill="#fff"/><path d="M240.12,314.533a1.008,1.008,0,1,1,1,.86A.939.939,0,0,1,240.12,314.533Zm.136,1.817h1.721v6.736h-1.721Z" transform="translate(-206.221 -284.927)" fill="#fff"/><path d="M241.6,318.414a3.5,3.5,0,1,1,3.5,3.474A3.279,3.279,0,0,1,241.6,318.414Zm5.257,0c0-1.234-.581-2.219-1.746-2.219-1.187,0-1.763.985-1.763,2.219s.577,2.205,1.763,2.205C246.279,320.615,246.86,319.642,246.86,318.41Z" transform="translate(-204.403 -283.597)" fill="#fff"/><path d="M247.114,321.756h-1.721V315.02h1.645v1.144h.085a2.211,2.211,0,0,1,2.178-1.232,2.326,2.326,0,0,1,2.5,2.535v4.289h-1.719v-4.044a1.316,1.316,0,0,0-1.425-1.437,1.436,1.436,0,0,0-1.543,1.534Z" transform="translate(-199.754 -283.597)" fill="#fff"/><path d="M253.432,316.958a1.268,1.268,0,0,0-1.345-.842c-.717,0-1.265.314-1.258.772-.007.39.287.626,1.029.78l1.247.246c1.38.275,2.051.864,2.055,1.823,0,1.275-1.294,2.15-3.122,2.15-1.79,0-2.919-.733-3.133-1.971l1.679-.148c.149.606.661.92,1.452.92.819,0,1.36-.345,1.36-.8,0-.382-.314-.632-.986-.768l-1.245-.242c-1.4-.267-2.06-.916-2.055-1.9,0-1.248,1.193-2.045,2.952-2.045,1.714,0,2.7.727,2.941,1.868Z" transform="translate(-195.447 -283.597)" fill="#fff"/></g></g></svg>